<?xml version="1.0" encoding="utf-8"?>
<!-- Generator: Adobe Illustrator 20.1.0, SVG Export Plug-In . SVG Version: 6.00 Build 0)  -->
<svg version="1.1" id="Ebene_1" xmlns="http://www.w3.org/2000/svg" xmlns:xlink="http://www.w3.org/1999/xlink" x="0px" y="0px"
	 viewBox="0 0 215 82.8" style="enable-background:new 0 0 215 82.8;" xml:space="preserve">
<style type="text/css">
	.st0{fill:#1F7144;}
	.st1{clip-path:url(#SVGID_2_);fill:#1D1D1B;}
	.st2{fill:#FFFFFF;}
	.st3{clip-path:url(#SVGID_4_);fill:#1D1D1B;}
</style>
<rect x="32.1" y="0" class="st0" width="69.7" height="82.8"/>
<g>
	<defs>
		<rect id="SVGID_1_" y="0" width="215" height="82.8"/>
	</defs>
	<clipPath id="SVGID_2_">
		<use xlink:href="#SVGID_1_"  style="overflow:visible;"/>
	</clipPath>
	<path class="st1" d="M201.5,77.6h7.9V50.7h5.6v-6.1h-5.6V33.2h-7.9v11.5H196v6.1h5.5V77.6z M183.7,77.6h7.9V44.7h-7.9V77.6z
		 M183.7,40.2h7.9v-7h-7.9V40.2z M145.7,77.6h7.9V59.4c0-4.6,1.9-8.3,7.5-8.4c5.5,0,7.1,3.8,7.1,8.7v17.9h7.9V57.8
		c0-5.8-2-14-12.8-14.1c-5.9-0.1-8.8,2.8-10.3,5.4c0.1-1.6,0.1-2.9,0.1-4.4h-7.4V77.6z M105.4,33.2v27.3c0,5.9,0.6,9.8,4.7,13.7
		c3.3,3.4,8.4,4.3,11.6,4.3c4.9,0,8.7-1.7,11.4-4.3c3.4-3.1,4.7-7.1,4.7-13.7V33.2h-8.9v27.3c0,2.4,0,4.7-1.3,6.9
		c-1,1.8-2.9,3.2-5.9,3.2c-2.9,0-4.9-1.4-6-3.4c-1.2-2.2-1.3-4.5-1.3-6.7V33.2H105.4z"/>
</g>
<path class="st2" d="M64.6,77.6h9.5l7.4-11.3L89,77.6h9.7L86.3,60.3l11-15.6H88l-6.4,10.1l-6.4-10.1h-9.5l11.1,15.6L64.6,77.6z
	 M36.7,77.6h24.9v-7.9h-16V59h15.7v-7.9H45.6V41.1h16v-7.9H36.7V77.6z"/>
<g>
	<defs>
		<rect id="SVGID_3_" y="0" width="215" height="82.8"/>
	</defs>
	<clipPath id="SVGID_4_">
		<use xlink:href="#SVGID_3_"  style="overflow:visible;"/>
	</clipPath>
	<path class="st3" d="M28.3,33.2h-8.9v30.2c0,1.4-0.1,2.9-0.6,4.3c-0.5,1.5-1.9,2.8-4.3,2.9c-2.3,0-4.1-1.7-4.7-4.6
		c-0.1-0.4-0.1-0.8-0.1-1.2H0c0.1,1,0.1,2,0.3,2.9C2.2,77.8,12.1,78.5,14,78.5c2.8,0,5.9-0.8,8.5-2.5c1.8-1.1,3.5-3.1,4.4-4.9
		c1-2.2,1.4-5,1.4-9.8V33.2z"/>
</g>
</svg>
